<?xml version="1.0" encoding="UTF-8" standalone="no"?>
<!-- Created with Inkscape (http://www.inkscape.org/) -->

<svg
   width="200.00037mm"
   height="54.388889mm"
   viewBox="0 0 200.00036 54.388889"
   version="1.1"
   id="svg1"
   inkscape:version="1.3.2 (091e20e, 2023-11-25, custom)"
   sodipodi:docname="inductor2.svg"
   xmlns:inkscape="http://www.inkscape.org/namespaces/inkscape"
   xmlns:sodipodi="http://sodipodi.sourceforge.net/DTD/sodipodi-0.dtd"
   xmlns="http://www.w3.org/2000/svg"
   xmlns:svg="http://www.w3.org/2000/svg"
   xmlns:rdf="http://www.w3.org/1999/02/22-rdf-syntax-ns#"
   xmlns:cc="http://creativecommons.org/ns#">
  <sodipodi:namedview
     id="namedview1"
     pagecolor="#ffffff"
     bordercolor="#000000"
     borderopacity="0.25"
     inkscape:showpageshadow="2"
     inkscape:pageopacity="0.0"
     inkscape:pagecheckerboard="0"
     inkscape:deskcolor="#d1d1d1"
     inkscape:document-units="mm"
     inkscape:zoom="1.7852164"
     inkscape:cx="352.61831"
     inkscape:cy="201.37614"
     inkscape:window-width="2880"
     inkscape:window-height="1694"
     inkscape:window-x="-11"
     inkscape:window-y="-11"
     inkscape:window-maximized="1"
     inkscape:current-layer="layer1"
     showgrid="true">
    <inkscape:grid
       id="grid1"
       units="mm"
       originx="67.500166"
       originy="-96.036027"
       spacingx="0.5"
       spacingy="0.5"
       empcolor="#0099e5"
       empopacity="0.30196078"
       color="#0099e5"
       opacity="0.14901961"
       empspacing="5"
       dotted="false"
       gridanglex="30"
       gridanglez="30"
       visible="true" />
  </sodipodi:namedview>
  <defs
     id="defs1" />
  <g
     inkscape:label="Layer 1"
     inkscape:groupmode="layer"
     id="layer1"
     transform="translate(67.50017,-96.03603)">
    <path
       id="path3-5-0-1"
       style="fill:none;stroke:#000000;stroke-width:10;stroke-dasharray:none"
       d="m 69.97911,126.61029 a 18.746546,25.574357 0 0 1 18.74655,-25.57426 18.746546,25.574357 0 0 1 18.74656,25.57426 m -74.98619,0 a 18.746546,25.574357 0 0 1 18.74654,-25.57426 18.746546,25.574357 0 0 1 18.74654,25.57426 m -74.98618,0 a 18.746546,25.574357 0 0 1 18.74655,-25.57426 18.746546,25.574357 0 0 1 18.74655,25.57426 m -74.98619,0 a 18.746546,25.574357 0 0 1 18.74655,-25.57426 18.746546,25.574357 0 0 1 18.74654,25.57426" />
    <path
       style="fill:none;stroke:#000000;stroke-width:10;stroke-dasharray:none"
       d="m -67.50017,145.42492 h 25 v -18.81475"
       id="path6" />
    <path
       style="fill:none;stroke:#000000;stroke-width:10;stroke-dasharray:none"
       d="m 107.47222,126.61029 0.028,18.81463 h 24.99998"
       id="path7" />
  </g>
  <metadata
     id="metadata1">
    <rdf:RDF>
      <cc:Work
         rdf:about="" />
    </rdf:RDF>
  </metadata>
</svg>
