<?xml version="1.0" encoding="UTF-8" standalone="no"?>
<!-- Created with Inkscape (http://www.inkscape.org/) -->

<svg
   width="20.000036mm"
   height="4.5388899mm"
   viewBox="0 0 20.000036 4.5388899"
   version="1.1"
   id="svg1"
   inkscape:version="1.3.2 (091e20e, 2023-11-25, custom)"
   sodipodi:docname="inductor2.svg"
   xmlns:inkscape="http://www.inkscape.org/namespaces/inkscape"
   xmlns:sodipodi="http://sodipodi.sourceforge.net/DTD/sodipodi-0.dtd"
   xmlns="http://www.w3.org/2000/svg"
   xmlns:svg="http://www.w3.org/2000/svg"
   xmlns:rdf="http://www.w3.org/1999/02/22-rdf-syntax-ns#"
   xmlns:cc="http://creativecommons.org/ns#">
  <sodipodi:namedview
     id="namedview1"
     pagecolor="#ffffff"
     bordercolor="#000000"
     borderopacity="0.25"
     inkscape:showpageshadow="2"
     inkscape:pageopacity="0.0"
     inkscape:pagecheckerboard="0"
     inkscape:deskcolor="#d1d1d1"
     inkscape:document-units="mm"
     inkscape:zoom="5.0493546"
     inkscape:cx="-9.5061654"
     inkscape:cy="-30.796015"
     inkscape:window-width="2880"
     inkscape:window-height="1694"
     inkscape:window-x="-11"
     inkscape:window-y="-11"
     inkscape:window-maximized="1"
     inkscape:current-layer="layer1"
     showgrid="true">
    <inkscape:grid
       id="grid1"
       units="mm"
       originx="-22.499999"
       originy="-120.9611"
       spacingx="0.5"
       spacingy="0.5"
       empcolor="#0099e5"
       empopacity="0.30196078"
       color="#0099e5"
       opacity="0.14901961"
       empspacing="5"
       dotted="false"
       gridanglex="30"
       gridanglez="30"
       visible="true" />
  </sodipodi:namedview>
  <defs
     id="defs1" />
  <g
     inkscape:label="Layer 1"
     inkscape:groupmode="layer"
     id="layer1"
     transform="translate(-22.5,-120.9611)">
    <path
       id="path3-5-0-1"
       style="fill:none;stroke:#000000;stroke-width:1"
       d="m 36.247928,123.5 a 1.8746546,2.038907 0 0 1 1.874655,-2.0389 1.8746546,2.038907 0 0 1 1.874656,2.0389 m -7.498619,0 a 1.8746546,2.038907 0 0 1 1.874654,-2.0389 1.8746546,2.038907 0 0 1 1.874654,2.0389 m -7.498618,0 a 1.8746546,2.038907 0 0 1 1.874655,-2.0389 1.8746546,2.038907 0 0 1 1.874655,2.0389 m -7.498619,0 a 1.8746546,2.038907 0 0 1 1.874655,-2.0389 1.8746546,2.038907 0 0 1 1.874654,2.0389" />
    <path
       style="fill:none;stroke:#000000;stroke-width:1;stroke-dasharray:none"
       d="M 22.5,124.99999 H 25 v -1.5"
       id="path6" />
    <path
       style="fill:none;stroke:#000000;stroke-width:1;stroke-dasharray:none"
       d="m 39.997239,123.5 0.0028,1.49999 h 2.499998"
       id="path7" />
  </g>
  <metadata
     id="metadata1">
    <rdf:RDF>
      <cc:Work
         rdf:about="" />
    </rdf:RDF>
  </metadata>
</svg>
