<?xml version="1.0" encoding="UTF-8" standalone="no"?>
<!-- Created with Inkscape (http://www.inkscape.org/) -->

<svg
   width="200.00002mm"
   height="50mm"
   viewBox="0 0 200.00001 50"
   version="1.1"
   id="svg1"
   inkscape:version="1.3.2 (091e20e, 2023-11-25, custom)"
   sodipodi:docname="inductor2.svg"
   xmlns:inkscape="http://www.inkscape.org/namespaces/inkscape"
   xmlns:sodipodi="http://sodipodi.sourceforge.net/DTD/sodipodi-0.dtd"
   xmlns="http://www.w3.org/2000/svg"
   xmlns:svg="http://www.w3.org/2000/svg"
   xmlns:rdf="http://www.w3.org/1999/02/22-rdf-syntax-ns#"
   xmlns:cc="http://creativecommons.org/ns#">
  <sodipodi:namedview
     id="namedview1"
     pagecolor="#ffffff"
     bordercolor="#000000"
     borderopacity="0.25"
     inkscape:showpageshadow="2"
     inkscape:pageopacity="0.0"
     inkscape:pagecheckerboard="0"
     inkscape:deskcolor="#d1d1d1"
     inkscape:document-units="mm"
     inkscape:zoom="1.7852164"
     inkscape:cx="295.20231"
     inkscape:cy="150.96209"
     inkscape:window-width="2880"
     inkscape:window-height="1694"
     inkscape:window-x="-11"
     inkscape:window-y="-11"
     inkscape:window-maximized="1"
     inkscape:current-layer="layer1"
     showgrid="true">
    <inkscape:grid
       id="grid1"
       units="mm"
       originx="67.5"
       originy="-107.5"
       spacingx="0.5"
       spacingy="0.5"
       empcolor="#0099e5"
       empopacity="0.30196078"
       color="#0099e5"
       opacity="0.14901961"
       empspacing="5"
       dotted="false"
       gridanglex="30"
       gridanglez="30"
       visible="true" />
  </sodipodi:namedview>
  <defs
     id="defs1" />
  <g
     inkscape:label="Layer 1"
     inkscape:groupmode="layer"
     id="layer1"
     transform="translate(67.500002,-107.5)">
    <path
       style="fill:none;stroke:#000000;stroke-width:10"
       d="m -27.499998,127.5 v 25 h -40.000004"
       id="path2" />
    <path
       style="fill:none;stroke:#000000;stroke-width:10"
       d="m 92.500005,127.5 v 25 h 40.000005"
       id="path3" />
    <g
       id="g2"
       transform="translate(29.989372)">
      <path
         id="path1-2-8-2"
         style="fill:none;stroke:#000000;stroke-width:10;stroke-linejoin:miter;stroke-linecap:square"
         d="m 32.500004,127.5 a 15,15 0 0 1 15,-15 15,15 0 0 1 15,15 m -60.0000002,0 a 15,15 0 0 1 15.0000002,-15 15,15 0 0 1 15,15 M -27.5,127.5 a 15,15 0 0 1 15,-15 15,15 0 0 1 15,15 m -60,0 a 15,15 0 0 1 15,-15 15,15 0 0 1 15,15" />
    </g>
  </g>
  <metadata
     id="metadata1">
    <rdf:RDF>
      <cc:Work
         rdf:about="" />
    </rdf:RDF>
  </metadata>
</svg>
